<svg width="21" height="16" viewBox="0 0 21 16" fill="none" xmlns="http://www.w3.org/2000/svg">
<path d="M20.7084 7.49986L16.7084 0.499866C16.3245 -0.172134 15.3423 -0.172134 14.9584 0.499866C14.4584 1.37487 11.4584 6.62486 10.9584 7.49986C10.7827 7.80686 10.7827 8.19186 10.9584 8.49986L14.9584 15.4999C15.3423 16.1719 16.3245 16.1719 16.7084 15.4999L20.7084 8.49986C20.8841 8.19286 20.8841 7.80786 20.7084 7.49986ZM11.8022 0.749866C11.7348 0.502866 11.5732 0.261866 11.3334 0.124866C10.8539 -0.149134 10.2324 0.0208659 9.95844 0.499866L5.95843 7.49986C5.78273 7.80686 5.78273 8.19186 5.95843 8.49986L9.95843 15.4999C10.2324 15.9799 10.8539 16.1489 11.3334 15.8749C11.8129 15.6009 11.9824 14.9799 11.7084 14.4999L7.98963 7.99986L11.7084 1.49987C11.8454 1.25987 11.8695 0.996866 11.8022 0.749866ZM6.80224 0.749865C6.73484 0.502866 6.57324 0.261866 6.33344 0.124866C5.85394 -0.149134 5.23244 0.0208657 4.95844 0.499865L0.958435 7.49986C0.782735 7.80686 0.782735 8.19186 0.958435 8.49986L4.95843 15.4999C5.23243 15.9799 5.85393 16.1489 6.33343 15.8749C6.81293 15.6009 6.98243 14.9799 6.70843 14.4999L2.98963 7.99986L6.70843 1.49987C6.84544 1.25987 6.86954 0.996865 6.80224 0.749865Z" fill="#282828"/>
</svg>
