<svg width="21" height="20" viewBox="0 0 21 20" fill="none" xmlns="http://www.w3.org/2000/svg">
<path d="M13.5001 13V12H12.5001V13H13.5001ZM18.793 19.7071C19.1835 20.0976 19.8166 20.0976 20.2072 19.7071C20.5977 19.3166 20.5977 18.6834 20.2072 18.2929L18.793 19.7071ZM13.5001 7H12.5001V8H13.5001V7ZM20.2072 1.70711C20.5977 1.31658 20.5977 0.683418 20.2072 0.292893C19.8166 -0.0976311 19.1835 -0.0976311 18.793 0.292893L20.2072 1.70711ZM7.50006 13H8.50006V12H7.50006V13ZM0.792954 18.2929C0.40243 18.6834 0.40243 19.3166 0.792954 19.7071C1.18348 20.0976 1.81664 20.0976 2.20717 19.7071L0.792954 18.2929ZM7.50006 7V8H8.50006V7H7.50006ZM2.20717 0.292893C1.81664 -0.0976311 1.18348 -0.0976311 0.792954 0.292893C0.40243 0.683418 0.40243 1.31658 0.792954 1.70711L2.20717 0.292893ZM14.5001 18V13H12.5001V18H14.5001ZM13.5001 14H18.5001V12H13.5001V14ZM12.793 13.7071L18.793 19.7071L20.2072 18.2929L14.2072 12.2929L12.793 13.7071ZM12.5001 2V7H14.5001V2H12.5001ZM13.5001 8H18.5001V6H13.5001V8ZM14.2072 7.70711L20.2072 1.70711L18.793 0.292893L12.793 6.29289L14.2072 7.70711ZM8.50006 18V13H6.50006V18H8.50006ZM7.50006 12H2.50006V14H7.50006V12ZM6.79295 12.2929L0.792954 18.2929L2.20717 19.7071L8.20717 13.7071L6.79295 12.2929ZM6.50006 2V7H8.50006V2H6.50006ZM7.50006 6H2.50006V8H7.50006V6ZM8.20717 6.29289L2.20717 0.292893L0.792954 1.70711L6.79295 7.70711L8.20717 6.29289Z" fill="#282828"/>
</svg>
