<svg width="19" height="18" viewBox="0 0 19 18" fill="none" xmlns="http://www.w3.org/2000/svg">
<path d="M4.49847 -0.00927734C2.28947 -0.00927734 0.498474 1.78172 0.498474 3.99072V13.9907C0.498474 16.1997 2.28947 17.9907 4.49847 17.9907H14.4985C16.7074 17.9907 18.4984 16.1997 18.4984 13.9907V3.99072C18.4984 1.78172 16.7074 -0.00927734 14.4985 -0.00927734H4.49847ZM13.4985 2.99072C14.6035 2.99072 15.4984 3.88572 15.4984 4.99072C15.4984 6.09572 14.6035 6.99072 13.4985 6.99072C12.3935 6.99072 11.4985 6.09572 11.4985 4.99072C11.4985 3.88572 12.3935 2.99072 13.4985 2.99072ZM5.99847 7.99072C6.58046 7.99172 7.46447 8.89772 8.31047 10.4597C8.64647 11.0777 8.94745 11.7587 9.21745 12.4287C9.37945 12.8287 9.50447 13.1347 9.56047 13.3027C9.83347 14.1197 10.9415 14.2357 11.3735 13.4907C11.4165 13.4167 11.4945 13.2747 11.6235 13.0847C11.8395 12.7647 12.0854 12.4407 12.3424 12.1467C12.9844 11.4107 13.6045 10.9907 13.9985 10.9907C14.3975 11.0007 15.0135 11.4197 15.6545 12.1467C15.9145 12.4417 16.1544 12.7647 16.3734 13.0847C16.4424 13.1847 16.4524 13.2317 16.4984 13.3027V13.9907C16.4984 15.0957 15.6034 15.9907 14.4985 15.9907H4.49847C3.39347 15.9907 2.49847 15.0957 2.49847 13.9907V13.1467C2.56147 12.9687 2.64548 12.7577 2.77948 12.4287C3.05248 11.7587 3.34846 11.0787 3.68646 10.4597C4.53946 8.89472 5.41747 7.98972 5.99847 7.99072Z" fill="#282828"/>
</svg>
