<svg width="21" height="21" viewBox="0 0 21 21" fill="none" xmlns="http://www.w3.org/2000/svg">
<path d="M10.1652 0.0141602C8.87216 0.0141602 7.41417 3.96416 7.22717 9.01416H13.1031C12.9161 3.96516 11.4582 0.0141602 10.1652 0.0141602ZM7.00916 0.51416C3.32216 1.74316 0.546167 5.11516 0.196167 9.01416H5.22717C5.33817 5.57516 5.95916 2.52516 7.00916 0.51416ZM13.3212 0.51416C14.3712 2.52516 14.9921 5.57516 15.1031 9.01416H20.1031C19.7411 5.06916 17.0442 1.76516 13.3212 0.51416ZM0.227173 11.0142C0.587173 15.0212 3.36916 18.3042 7.04016 19.5142C5.99116 17.5032 5.33817 14.4532 5.22717 11.0142H0.227173ZM7.22717 11.0142C7.41417 16.0632 8.87216 20.0142 10.1652 20.0142C11.4582 20.0142 12.9161 16.0642 13.1031 11.0142H7.22717ZM15.1031 11.0142C14.9921 14.4532 14.3392 17.5032 13.2902 19.5142C17.0612 18.2312 19.7351 14.8942 20.1031 11.0142H15.1031Z" fill="#282828"/>
</svg>
