<svg width="21" height="12" viewBox="0 0 21 12" fill="none" xmlns="http://www.w3.org/2000/svg">
<path d="M1.16675 0C0.614748 0 0.166748 0.448 0.166748 1C0.166748 1.552 0.614748 2 1.16675 2H19.1667C19.7187 2 20.1667 1.552 20.1667 1C20.1667 0.448 19.7187 0 19.1667 0H1.16675ZM1.16675 5C0.614748 5 0.166748 5.448 0.166748 6C0.166748 6.552 0.614748 7 1.16675 7H19.1667C19.7187 7 20.1667 6.552 20.1667 6C20.1667 5.448 19.7187 5 19.1667 5H1.16675ZM1.16675 10C0.614748 10 0.166748 10.448 0.166748 11C0.166748 11.552 0.614748 12 1.16675 12H14.1667C14.7187 12 15.1667 11.552 15.1667 11C15.1667 10.448 14.7187 10 14.1667 10H1.16675Z" fill="#2A343D"/>
</svg>
